HIERARCHY
ROOT pelvis
{
  OFFSET 0 100 0
  CHANNELS 6 Xposition Yposition Zposition Zrotation Xrotation Yrotation
  JOINT pelvis_right_femur
  {
    OFFSET -10.78128 -3.44521 -0.5502486
    CHANNELS 3 Zrotation Xrotation Yrotation
    JOINT right_femur_tibia
    {
      OFFSET -0.8047443 -44.0398 -0.1307829
      CHANNELS 3 Zrotation Xrotation Yrotation
      JOINT right_tibia_foot
      {
        OFFSET 3.006224 -47.83518 -5
        CHANNELS 3 Zrotation Xrotation Yrotation
        End Site
        {
          OFFSET 0 -5 15
        }
      }
    }
  }
  JOINT pelvis_left_femur
  {
    OFFSET 10.78128 -3.44521 -0.5502486
    CHANNELS 3 Zrotation Xrotation Yrotation
    JOINT left_femur_tibia
    {
      OFFSET 0.8047443 -44.0398 -0.1307829
      CHANNELS 3 Zrotation Xrotation Yrotation
      JOINT left_tibia_foot
      {
        OFFSET -4.370144 -48.10324 -4.275266
        CHANNELS 3 Zrotation Xrotation Yrotation
        End Site
        {
          OFFSET 0 -5 15
        }
      }
    }
  }
  JOINT pelvis_spine1
  {
    OFFSET 0 6.468898 -3.129235
    CHANNELS 3 Zrotation Xrotation Yrotation
    JOINT spine1
    {
      OFFSET 0 23.15396 4.99043
      CHANNELS 3 Zrotation Xrotation Yrotation
      JOINT spine2
      {
        OFFSET 0 20.79997 -5.064912
        CHANNELS 3 Zrotation Xrotation Yrotation
        JOINT neck
        {
          OFFSET 0 14.38658 9.616178
          CHANNELS 3 Zrotation Xrotation Yrotation
          End Site
          {
            OFFSET 0 20 0
          }
        }
      }
      JOINT right_manubrium
      {
        OFFSET -5.722621 16.35077 3.967754
        CHANNELS 3 Zrotation Xrotation Yrotation
        JOINT right_clavicle
        {
          OFFSET -13.16364 1.694482 -4.693211
          CHANNELS 3 Zrotation Xrotation Yrotation
          JOINT right_humerus
          {
            OFFSET -28.5034 -0.3100689 -2.792744
            CHANNELS 3 Zrotation Xrotation Yrotation
            JOINT right_radius
            {
              OFFSET -25.15693 0.02248979 -1.271978
              CHANNELS 3 Zrotation Xrotation Yrotation
              End Site
              {
                OFFSET -15 0 0
              }
            }
          }
        }
      }
      JOINT left_manubrium
      {
        OFFSET 5.722621 16.35077 3.967754
        CHANNELS 3 Zrotation Xrotation Yrotation
        JOINT left_clavicle
        {
          OFFSET 13.16364 1.694482 -4.693211
          CHANNELS 3 Zrotation Xrotation Yrotation
          JOINT left_humerus
          {
            OFFSET 29.39168 -1.063119 -2.237045
            CHANNELS 3 Zrotation Xrotation Yrotation
            JOINT left_radius
            {
              OFFSET 24.59957 -0.9528479 0.9047498
              CHANNELS 3 Zrotation Xrotation Yrotation
              End Site
              {
                OFFSET 15 -0 -0
              }
            }
          }
        }
      }
    }
  }
}
MOTION
Frames: 7
Frame Time: 0.0416666666667
0 103.5113 0 2.339152 0.2172198 0.0215954 3.587315 -15.20131 12.33815 -0 36.73982 -0 -4.376704 -17.9042 -4.41746 -8.513268 8.898692 -21.16612 -0 4.95914 -0 22.92724 -9.709614 29.95239 -2.645316 -2.666447 5.637415 1.897338 10.82649 -6.910537 1.559557 22.08174 5.655661 2.606307 -23.68624 8.690912 5.491543 -20.42013 11.31176 85.47568 36.60545 -16.60902 -0 0 15.74915 -9.944143 8.601714 6.058468 6.073182 -20.59898 -1.18229 -92.79608 22.6144 22.34794 0 0 -13.5302 12.9714 15.39363 -0.2105976
0.4032214 103.3968 1.549232 1.638245 1.164901 0.007030562 4.788654 -18.19827 12.85309 -0 37.84989 -0 -4.641427 -16.68579 -3.899937 -8.212058 8.50662 -21.14382 -0 5.473057 -0 22.69853 -10.22482 30.12833 -2.513355 -2.443572 5.328321 2.123263 10.75436 -7.149091 1.533298 21.81448 5.890229 2.82062 -24.09753 8.732267 5.636561 -19.86266 11.40712 85.74281 36.10376 -17.33886 -0 0 15.15287 -9.835064 8.828913 5.912148 6.111863 -20.71706 -1.213779 -92.60502 22.52292 21.67293 0 0 -13.85035 12.57592 15.17367 0.02778354
0.6627071 103.0514 3.479491 1.293208 0.1235072 0.08750223 4.389183 -19.28841 8.122672 -0 34.15393 -0 -6.589718 -14.27616 -2.248297 -7.726598 10.11464 -20.72862 -0 6.383044 -0 17.83029 -13.79992 28.26397 -2.466925 -2.322513 5.112533 2.266368 10.70706 -7.299522 1.506912 21.63449 6.058479 2.970963 -24.33657 8.760258 5.742307 -19.53056 11.47493 85.8503 35.78917 -17.72324 -0 0 14.82545 -9.825907 8.971755 5.863615 6.167273 -20.78688 -1.216415 -92.44615 22.35748 21.19544 0 0 -14.00037 12.41005 15.01937 0.02656674
0.8468318 102.6569 5.726483 0.7281762 0.1032075 0.1482348 4.763129 -21.80185 6.074682 -0 32.15427 -0 -7.626114 -12.06604 -1.255422 -7.238743 10.85496 -20.25138 -0 7.207876 -0 15.05257 -15.95472 26.97484 -2.414403 -2.232603 4.958514 2.378893 10.64457 -7.415957 1.487227 21.49 6.184333 3.079266 -24.54038 8.785202 5.804133 -19.27973 11.51269 85.93319 35.55389 -18.02703 -0 0 14.56947 -9.79896 9.084152 5.824091 6.214145 -20.84313 -1.205904 -92.33397 22.28068 20.8497 0 0 -14.18567 12.24741 14.90854 0.0923126
0.9872586 102.1787 8.29284 0.2851424 0.06326354 0.2140879 5.08071 -24.03871 4.457073 -0 30.02143 -0 -8.531333 -9.97607 -0.4608404 -6.833736 11.45164 -19.54696 -0 8.185213 -0 13.42333 -17.35225 25.82738 -2.373172 -2.165163 4.835009 2.470304 10.58587 -7.509979 1.470149 21.3699 6.287781 3.166559 -24.70751 8.807109 5.850417 -19.08302 11.53981 85.99025 35.36725 -18.26242 -0 0 14.37138 -9.77973 9.175242 5.797578 6.258736 -20.88854 -1.190253 -92.24172 22.2171 20.57076 0 0 -14.34689 12.12022 14.82034 0.1401215
1.1043 101.6485 11.18984 -0.1285027 0.1490942 0.290955 5.467916 -26.24793 3.302599 -0 27.99177 -0 -9.302318 -7.949065 0.2046167 -6.476685 11.91616 -18.75708 -0 9.386167 -0 12.44697 -18.27518 24.78928 -2.331904 -2.107431 4.730572 2.551714 10.52477 -7.592469 1.455133 21.26256 6.377111 3.240112 -24.86112 8.827498 5.883868 -18.91318 11.55886 86.0387 35.20544 -18.46894 -0 0 14.19728 -9.756639 9.254812 5.775535 6.298741 -20.92803 -1.172029 -92.16379 22.17752 20.3343 0 0 -14.51084 11.9969 14.74482 0.2039553
1.207598 101.0894 14.44091 -0.482618 0.2021989 0.3881062 5.810814 -28.13607 2.251822 -0 25.94608 -0 -10.08367 -5.970964 0.8359313 -6.164478 12.35252 -17.87345 -0 10.95227 -0 11.78954 -18.82013 23.71167 -2.29173 -2.056094 4.638429 2.626173 10.46299 -7.666826 1.441286 21.16421 6.457051 3.304631 -25.00422 8.846473 5.909254 -18.76183 11.57314 86.08021 35.06027 -18.65352 -0 0 14.03994 -9.733158 9.326109 5.758211 6.335335 -20.96294 -1.152634 -92.0942 22.15082 20.12528 0 0 -14.6734 11.87812 14.67677 0.2747986
